<mxfile host="Electron" agent="Mozilla/5.0 (Macintosh; Intel Mac OS X 10_15_7) AppleWebKit/537.36 (KHTML, like Gecko) draw.io/24.7.5 Chrome/126.0.6478.183 Electron/31.3.0 Safari/537.36" version="24.7.5">
  <diagram id="C5RBs43oDa-KdzZeNtuy" name="Page-1">
    <mxGraphModel dx="1687" dy="1175" grid="1" gridSize="10" guides="1" tooltips="1" connect="1" arrows="1" fold="1" page="1" pageScale="1" pageWidth="827" pageHeight="1169" math="0" shadow="0">
      <root>
        <mxCell id="WIyWlLk6GJQsqaUBKTNV-0" />
        <mxCell id="WIyWlLk6GJQsqaUBKTNV-1" parent="WIyWlLk6GJQsqaUBKTNV-0" />
        <mxCell id="EyaHh1xmUON9SHUpa5GK-0" style="edgeStyle=orthogonalEdgeStyle;rounded=0;orthogonalLoop=1;jettySize=auto;html=1;entryX=0.5;entryY=0;entryDx=0;entryDy=0;exitX=1.007;exitY=0.436;exitDx=0;exitDy=0;exitPerimeter=0;" edge="1" parent="WIyWlLk6GJQsqaUBKTNV-1" source="78geTzPeZMI0ztwPiqvb-1" target="78geTzPeZMI0ztwPiqvb-28">
          <mxGeometry relative="1" as="geometry">
            <mxPoint x="630" y="320" as="targetPoint" />
          </mxGeometry>
        </mxCell>
        <mxCell id="78geTzPeZMI0ztwPiqvb-1" value="&lt;font style=&quot;font-size: 18px;&quot;&gt;Stage 1: Runntime Abhängigkeiten installieren&lt;/font&gt;" style="rounded=1;whiteSpace=wrap;html=1;" parent="WIyWlLk6GJQsqaUBKTNV-1" vertex="1">
          <mxGeometry x="310" y="140" width="220" height="60" as="geometry" />
        </mxCell>
        <mxCell id="78geTzPeZMI0ztwPiqvb-12" style="edgeStyle=orthogonalEdgeStyle;rounded=0;orthogonalLoop=1;jettySize=auto;html=1;exitX=0.5;exitY=1;exitDx=0;exitDy=0;entryX=0.5;entryY=0;entryDx=0;entryDy=0;" parent="WIyWlLk6GJQsqaUBKTNV-1" source="78geTzPeZMI0ztwPiqvb-3" target="78geTzPeZMI0ztwPiqvb-10" edge="1">
          <mxGeometry relative="1" as="geometry" />
        </mxCell>
        <mxCell id="78geTzPeZMI0ztwPiqvb-3" value="&lt;font style=&quot;font-size: 18px;&quot;&gt;Stage 2.1: Build-Abhängigkeiten für &quot;install-dependencies.sh&quot; installieren&lt;/font&gt;" style="whiteSpace=wrap;html=1;rounded=1;" parent="WIyWlLk6GJQsqaUBKTNV-1" vertex="1">
          <mxGeometry x="304" y="221" width="230" height="100" as="geometry" />
        </mxCell>
        <mxCell id="78geTzPeZMI0ztwPiqvb-15" style="edgeStyle=orthogonalEdgeStyle;rounded=0;orthogonalLoop=1;jettySize=auto;html=1;exitX=0.5;exitY=1;exitDx=0;exitDy=0;entryX=0.5;entryY=0;entryDx=0;entryDy=0;" parent="WIyWlLk6GJQsqaUBKTNV-1" source="78geTzPeZMI0ztwPiqvb-10" target="78geTzPeZMI0ztwPiqvb-14" edge="1">
          <mxGeometry relative="1" as="geometry" />
        </mxCell>
        <mxCell id="EyaHh1xmUON9SHUpa5GK-4" style="edgeStyle=orthogonalEdgeStyle;rounded=0;orthogonalLoop=1;jettySize=auto;html=1;exitX=0;exitY=0.5;exitDx=0;exitDy=0;entryX=0.5;entryY=0;entryDx=0;entryDy=0;" edge="1" parent="WIyWlLk6GJQsqaUBKTNV-1" source="78geTzPeZMI0ztwPiqvb-10" target="78geTzPeZMI0ztwPiqvb-17">
          <mxGeometry relative="1" as="geometry" />
        </mxCell>
        <mxCell id="78geTzPeZMI0ztwPiqvb-10" value="&lt;font style=&quot;font-size: 18px;&quot;&gt;Stage 2.2: &quot;install-dependencies.sh&quot; ausführen&lt;/font&gt;" style="whiteSpace=wrap;html=1;rounded=1;" parent="WIyWlLk6GJQsqaUBKTNV-1" vertex="1">
          <mxGeometry x="305" y="340" width="230" height="100" as="geometry" />
        </mxCell>
        <mxCell id="EyaHh1xmUON9SHUpa5GK-2" style="edgeStyle=orthogonalEdgeStyle;rounded=0;orthogonalLoop=1;jettySize=auto;html=1;exitX=0.5;exitY=1;exitDx=0;exitDy=0;entryX=0.25;entryY=0;entryDx=0;entryDy=0;dashed=1;" edge="1" parent="WIyWlLk6GJQsqaUBKTNV-1" source="78geTzPeZMI0ztwPiqvb-14" target="78geTzPeZMI0ztwPiqvb-28">
          <mxGeometry relative="1" as="geometry" />
        </mxCell>
        <mxCell id="78geTzPeZMI0ztwPiqvb-14" value="&lt;font style=&quot;font-size: 18px;&quot;&gt;Stage 3: Julea Kompilieren&amp;nbsp;&lt;/font&gt;" style="whiteSpace=wrap;html=1;rounded=1;" parent="WIyWlLk6GJQsqaUBKTNV-1" vertex="1">
          <mxGeometry x="305" y="460" width="230" height="100" as="geometry" />
        </mxCell>
        <mxCell id="78geTzPeZMI0ztwPiqvb-17" value="Stage 4a: Test-Komponenten installieren" style="whiteSpace=wrap;html=1;rounded=1;fontSize=18;" parent="WIyWlLk6GJQsqaUBKTNV-1" vertex="1">
          <mxGeometry x="75" y="600" width="230" height="100" as="geometry" />
        </mxCell>
        <mxCell id="78geTzPeZMI0ztwPiqvb-28" value="Stage 4b: Julea-Kompilat von Stage 3 kopieren&amp;nbsp;" style="whiteSpace=wrap;html=1;rounded=1;fontSize=18;" parent="WIyWlLk6GJQsqaUBKTNV-1" vertex="1">
          <mxGeometry x="535" y="600" width="230" height="100" as="geometry" />
        </mxCell>
        <mxCell id="78geTzPeZMI0ztwPiqvb-30" value="" style="endArrow=classic;html=1;rounded=0;dashed=1;" parent="WIyWlLk6GJQsqaUBKTNV-1" edge="1">
          <mxGeometry width="50" height="50" relative="1" as="geometry">
            <mxPoint x="660" y="111.91" as="sourcePoint" />
            <mxPoint x="740" y="111.91" as="targetPoint" />
          </mxGeometry>
        </mxCell>
        <mxCell id="78geTzPeZMI0ztwPiqvb-31" value="" style="endArrow=classic;html=1;rounded=0;" parent="WIyWlLk6GJQsqaUBKTNV-1" edge="1">
          <mxGeometry width="50" height="50" relative="1" as="geometry">
            <mxPoint x="660" y="44.41" as="sourcePoint" />
            <mxPoint x="740" y="44.91" as="targetPoint" />
          </mxGeometry>
        </mxCell>
        <mxCell id="78geTzPeZMI0ztwPiqvb-32" value="Hängt vollständig von vorgänger ab&amp;nbsp;" style="text;html=1;align=center;verticalAlign=middle;whiteSpace=wrap;rounded=0;fontSize=18;" parent="WIyWlLk6GJQsqaUBKTNV-1" vertex="1">
          <mxGeometry x="750" y="30" width="200" height="30" as="geometry" />
        </mxCell>
        <mxCell id="78geTzPeZMI0ztwPiqvb-33" value="Hägt von einzelnen Dateien des vorgängers ab&amp;nbsp;" style="text;html=1;align=center;verticalAlign=middle;whiteSpace=wrap;rounded=0;fontSize=18;" parent="WIyWlLk6GJQsqaUBKTNV-1" vertex="1">
          <mxGeometry x="750" y="97.5" width="260" height="30" as="geometry" />
        </mxCell>
        <mxCell id="EyaHh1xmUON9SHUpa5GK-1" style="edgeStyle=orthogonalEdgeStyle;rounded=0;orthogonalLoop=1;jettySize=auto;html=1;entryX=0.5;entryY=0;entryDx=0;entryDy=0;" edge="1" parent="WIyWlLk6GJQsqaUBKTNV-1" source="zp4V2_EaAILMSw2vBRc9-0" target="78geTzPeZMI0ztwPiqvb-1">
          <mxGeometry relative="1" as="geometry" />
        </mxCell>
        <mxCell id="zp4V2_EaAILMSw2vBRc9-0" value="&lt;font style=&quot;font-size: 18px;&quot;&gt;Stage 0: Basis-Layer (Ubuntu version X)&lt;/font&gt;" style="rounded=1;whiteSpace=wrap;html=1;" parent="WIyWlLk6GJQsqaUBKTNV-1" vertex="1">
          <mxGeometry x="325.5" y="40" width="189" height="80" as="geometry" />
        </mxCell>
        <mxCell id="zp4V2_EaAILMSw2vBRc9-11" style="edgeStyle=orthogonalEdgeStyle;rounded=0;orthogonalLoop=1;jettySize=auto;html=1;exitX=0.5;exitY=1;exitDx=0;exitDy=0;entryX=0.474;entryY=-0.012;entryDx=0;entryDy=0;entryPerimeter=0;" parent="WIyWlLk6GJQsqaUBKTNV-1" source="78geTzPeZMI0ztwPiqvb-1" target="78geTzPeZMI0ztwPiqvb-3" edge="1">
          <mxGeometry relative="1" as="geometry" />
        </mxCell>
      </root>
    </mxGraphModel>
  </diagram>
</mxfile>
